# xmcd
#
# Track frame offsets:
#	150
#	14626
#	27373
#	46162
#	58492
#	78079
#	95013
#	113787
#	128284
#	152474
#	168855
#	188948
#	203493
#	220820
#	242254
#
# Disc length: 3475
#
# Revision: 1
# Processed by: cddbd v1.5.2PL0 Copyright (c) Steve Scherf et al.
# Submitted via: kJams Pro (development) 1.0patch51.39
#
DISCID=b70d910f
DTITLE=Various Artist - CB60192
DYEAR=2008
DGENRE=Country
TTITLE0=Mavericks, The - Here Comes My Baby
TTITLE1=Austin, Sherrie - Little Bird
TTITLE2=White, Bryan - God Gave Me You
TTITLE3=Brooks and Dunn - Beer Thirty
TTITLE4=Womack, Lee Ann - Don't Tell Me
TTITLE5=Lonestar - Smile
TTITLE6=Vassar, Phil - Carlene
TTITLE7=McBride, Martina - Anything's Better Than Feelin' The Blues
TTITLE8=Walker, Clay - Chain Of Love, The
TTITLE9=Ashton, Susan - Closer
TTITLE10=Jackson, Alan and Jimmy Buffett - Margaritaville
TTITLE11=Sisters Wade - Don't Let Me Down
TTITLE12=England, Ty - Too Many Highways
TTITLE13=Chesney, Kenny - What I Need To Do
TTITLE14=Morgan, Lorrie - Things We Do, The
EXTD=Label=Chartbuster Pro CDG-60000+
EXTT0=
EXTT1=
EXTT2=
EXTT3=
EXTT4=
EXTT5=
EXTT6=
EXTT7=
EXTT8=
EXTT9=
EXTT10=
EXTT11=
EXTT12=
EXTT13=
EXTT14=
PLAYORDER=
